<svg width="192" height="192" viewBox="0 0 192 192" fill="none" xmlns="http://www.w3.org/2000/svg">
<mask id="mask0_27_2" style="mask-type:luminance" maskUnits="userSpaceOnUse" x="15" y="0" width="167" height="70">
<path d="M15.4275 0H181.828V69.3625H15.4275V0Z" fill="white"/>
</mask>
<g mask="url(#mask0_27_2)">
<path d="M27.685 56.945C41.175 33.4875 66.485 17.6925 95.4825 17.6925C129.172 17.6925 157.882 39.01 168.86 68.89C172.21 63.705 175.548 59.0475 179.1 55.5525L181.307 53.38C165.658 21.8125 133.107 0.105011 95.4825 0.105011C62.355 0.105011 33.1575 16.935 15.9675 42.5075L17.385 43.9325C20.905 47.4775 24.3 51.95 27.685 56.945Z" fill="#0557B1"/>
</g>
<mask id="mask1_27_2" style="mask-type:luminance" maskUnits="userSpaceOnUse" x="0" y="49" width="192" height="143">
<path d="M0 49.5225H191.04V191.52H0V49.5225Z" fill="white"/>
</mask>
<g mask="url(#mask1_27_2)">
<path d="M191.128 100.02C191.155 99.34 191.18 98.66 191.198 97.975C191.213 97.2675 191.225 96.5575 191.225 95.845C191.225 83.69 188.953 72.065 184.823 61.3675C172.425 73.5625 159.565 107.682 146.01 107.682C132.103 107.682 120.583 68.3475 106.675 68.3475C91.3825 68.3475 78.71 111.6 63.4175 111.597C45.32 111.597 28.1525 66.35 11.5975 49.68C5.0675 61.5175 0.972498 74.8825 -0.0175018 89.1025C15.5925 118.055 45.295 149.63 63.4175 148.025C87.77 145.867 94.395 100.11 111.335 100.112C123.595 100.112 134.275 131.24 146.01 134.787C152.23 136.667 159.135 134.462 165.898 129.775C153.268 155.94 126.485 173.995 95.4825 173.995C70.1475 173.995 47.63 161.935 33.35 143.245C20.9875 133.242 9.1 118.882 0.212498 105.335C4.9775 153.755 45.81 191.582 95.4825 191.582C146.958 191.582 188.94 150.957 191.128 100.025V100.02Z" fill="#007AFD"/>
</g>
</svg>
